{
  "accessors": [
    {
      "bufferView": 2,
      "componentType": 5126,
      "count": 1275,
      "max": [
        0.8694225549697876,
        1.5631940186722204e-13,
        0.93503934144973755
      ],
      "min": [
        -0.8694225549697876,
        -1.2279174327850342,
        -2.7981783556896289e-13
      ],
      "type": "VEC3"
    },
    {
      "bufferView": 2,
      "byteOffset": 15300,
      "componentType": 5126,
      "count": 1275,
      "max": [
        1,
        1,
        1
      ],
      "min": [
        -1,
        -1,
        -1
      ],
      "type": "VEC3"
    },
    {
      "bufferView": 1,
      "componentType": 5126,
      "count": 1275,
      "max": [
        2.0984251499176025,
        0.61395871639251709
      ],
      "min": [
        -0.8694225549697876,
        -0.61395871639251709
      ],
      "type": "VEC2"
    },
    {
      "bufferView": 0,
      "componentType": 5125,
      "count": 3579,
      "max": [
        1274
      ],
      "min": [
        0
      ],
      "type": "SCALAR"
    },
    {
      "bufferView": 2,
      "byteOffset": 30600,
      "componentType": 5126,
      "count": 2383,
      "max": [
        0.11433623731136322,
        1.1564360580251787e-13,
        0.024768132716417313
      ],
      "min": [
        -0.11433623731136322,
        -0.45554357767105103,
        -0.5933157205581665
      ],
      "type": "VEC3"
    },
    {
      "bufferView": 2,
      "byteOffset": 59196,
      "componentType": 5126,
      "count": 2383,
      "max": [
        1,
        1,
        1
      ],
      "min": [
        -1,
        -1,
        -1
      ],
      "type": "VEC3"
    },
    {
      "bufferView": 1,
      "byteOffset": 10200,
      "componentType": 5126,
      "count": 2383,
      "max": [
        0.41228252649307251,
        0.1754002720117569
      ],
      "min": [
        -2.0524933338165283,
        -0.26246720552444458
      ],
      "type": "VEC2"
    },
    {
      "bufferView": 0,
      "byteOffset": 14316,
      "componentType": 5125,
      "count": 7863,
      "max": [
        2382
      ],
      "min": [
        0
      ],
      "type": "SCALAR"
    }
  ],
  "asset": {
    "extras": {
      "author": "A Z U B A  |  interactive visualizations (https://sketchfab.com/azuba)",
      "license": "CC-BY-4.0 (http://creativecommons.org/licenses/by/4.0/)",
      "source": "https://sketchfab.com/3d-models/tnqincp-285760bd447f4f94a494638f8788ffbd",
      "title": "TNQINCP"
    },
    "generator": "Sketchfab-7.51.0",
    "version": "2.0"
  },
  "bufferViews": [
    {
      "buffer": 0,
      "byteLength": 45768,
      "byteOffset": 0,
      "name": "floatBufferViews",
      "target": 34963
    },
    {
      "buffer": 0,
      "byteLength": 29264,
      "byteOffset": 45768,
      "byteStride": 8,
      "name": "floatBufferViews",
      "target": 34962
    },
    {
      "buffer": 0,
      "byteLength": 87792,
      "byteOffset": 75032,
      "byteStride": 12,
      "name": "floatBufferViews",
      "target": 34962
    }
  ],
  "buffers": [
    {
      "byteLength": 162824,
      "uri": "scene.bin"
    }
  ],
  "materials": [
    {
      "doubleSided": true,
      "emissiveFactor": [
        0,
        0,
        0
      ],
      "name": "Tanque",
      "pbrMetallicRoughness": {
        "baseColorFactor": [
          0.52825027301365923,
          0.43981694627000439,
          0.31732754041793754,
          1
        ],
        "metallicFactor": 0,
        "roughnessFactor": 0.054192884913030662
      }
    },
    {
      "doubleSided": true,
      "emissiveFactor": [
        0,
        0,
        0
      ],
      "name": "Tubos",
      "pbrMetallicRoughness": {
        "baseColorFactor": [
          0.71736273391982752,
          0.66352412180318099,
          0.51806806514327097,
          1
        ],
        "metallicFactor": 0,
        "roughnessFactor": 0.42526206730296778
      }
    }
  ],
  "meshes": [
    {
      "name": "51263 51263 [105602]_Tanque_0",
      "primitives": [
        {
          "attributes": {
            "NORMAL": 1,
            "POSITION": 0,
            "TEXCOORD_0": 2
          },
          "indices": 3,
          "material": 0,
          "mode": 4
        }
      ]
    },
    {
      "name": "51263 51263 [105602]_Tubos_0",
      "primitives": [
        {
          "attributes": {
            "NORMAL": 5,
            "POSITION": 4,
            "TEXCOORD_0": 6
          },
          "indices": 7,
          "material": 1,
          "mode": 4
        }
      ]
    }
  ],
  "nodes": [
    {
      "children": [
        1
      ],
      "name": "RootNode (gltf orientation matrix)",
      "rotation": [
        -0.70710678118654746,
        -0,
        -0,
        0.70710678118654757
      ]
    },
    {
      "children": [
        2
      ],
      "name": "RootNode (model correction matrix)"
    },
    {
      "children": [
        3
      ],
      "matrix": [
        1,
        0,
        0,
        0,
        0,
        0,
        1,
        0,
        0,
        -1,
        0,
        0,
        0,
        0,
        0,
        1
      ],
      "name": "dae293c43f66471e84799e3a0ae0ac8c.fbx"
    },
    {
      "children": [
        4,
        7,
        9
      ],
      "name": "RootNode"
    },
    {
      "children": [
        5
      ],
      "matrix": [
        -29.08647719990347,
        -5.5189064575668629,
        -95.517119101714371,
        0,
        56.639309131094492,
        79.467234285632031,
        -21.839123978419661,
        0,
        77.110087759933748,
        -60.452463565620441,
        -19.988346967737169,
        0,
        407.62454223632812,
        590.38623046875,
        -100.54539489746094,
        1
      ],
      "name": "Light"
    },
    {
      "children": [
        6
      ],
      "matrix": [
        1,
        0,
        0,
        0,
        0,
        2.2204460492503131e-16,
        1,
        0,
        0,
        -1,
        2.2204460492503131e-16,
        0,
        0,
        0,
        0,
        1
      ],
      "name": ""
    },
    {
      "name": ""
    },
    {
      "children": [
        8
      ],
      "matrix": [
        -65.155832803290963,
        -44.527135765708579,
        -61.417030473735487,
        0,
        -32.40134137821245,
        89.539574512336159,
        -30.542088974418615,
        0,
        68.592054721299746,
        -1.0718647115348782e-05,
        -72.767633623962695,
        0,
        735.88916015625,
        495.8309326171875,
        692.5791015625,
        1
      ],
      "name": "Camera"
    },
    {
      "name": ""
    },
    {
      "children": [
        10,
        11
      ],
      "matrix": [
        30.479999542236328,
        0,
        0,
        0,
        -0,
        -4.9658222332838531e-06,
        -30.479999542235927,
        0,
        0,
        30.479999542235927,
        -4.9658222332838531e-06,
        0,
        -1.3265122507377658e-12,
        -21.598455429077148,
        3.5193183003240369e-12,
        1
      ],
      "name": "51263 51263 [105602]"
    },
    {
      "mesh": 0,
      "name": "51263 51263 [105602]_Tanque_0"
    },
    {
      "mesh": 1,
      "name": "51263 51263 [105602]_Tubos_0"
    }
  ],
  "scene": 0,
  "scenes": [
    {
      "name": "OSG_Scene",
      "nodes": [
        0
      ]
    }
  ]
}

